<?xml version="1.0" encoding="iso-8859-1"?>
<!-- Uploaded to: SVG Repo, www.svgrepo.com, Generator: SVG Repo Mixer Tools -->
<svg height="800px" width="800px" version="1.1" id="Layer_1" xmlns="http://www.w3.org/2000/svg" xmlns:xlink="http://www.w3.org/1999/xlink" 
	 viewBox="0 0 512 512" xml:space="preserve">
<path style="fill:#EFF2FA;" d="M381.2,504H130.8c-14.458,0-26.179-11.721-26.179-26.179V34.179C104.621,19.721,116.342,8,130.8,8
	h250.4c14.458,0,26.179,11.721,26.179,26.179v443.642C407.379,492.279,395.658,504,381.2,504z"/>
<path style="fill:#FF6464;" d="M183.667,238.229c0-21.161,17.759-38.315,39.666-38.315c10.858,0,20.689,4.221,27.848,11.05
	c2.655,2.532,6.981,2.532,9.636,0c7.16-6.83,16.991-11.05,27.849-11.05c21.907,0,39.666,17.154,39.666,38.315l0,0
	c0,39.572-53.059,75.572-68.29,85.09c-2.462,1.539-5.623,1.539-8.085,0C236.727,313.8,183.667,277.801,183.667,238.229"/>
<g>
	<path style="fill:#2D2B29;" d="M256,204.893c-8.717-8.216-20.304-12.921-32.495-12.921c-26.168,0-47.458,21.341-47.458,47.572
		c0,51.788,72.907,93.661,76.011,95.418c1.223,0.692,2.582,1.038,3.941,1.038c1.359,0,2.719-0.346,3.941-1.038
		c3.104-1.757,76.011-43.63,76.011-95.418c0-26.231-21.29-47.572-47.458-47.572C276.304,191.972,264.717,196.677,256,204.893z
		 M319.952,239.544c0,36.435-49.466,70.049-63.956,79.111c-14.499-9.051-63.948-42.603-63.948-79.111
		c0-17.409,14.112-31.572,31.458-31.572c10.331,0,20.013,5.113,25.902,13.679c1.492,2.171,3.958,3.468,6.592,3.468
		c2.634,0,5.1-1.297,6.592-3.468c5.889-8.565,15.572-13.679,25.902-13.679C305.84,207.972,319.952,222.135,319.952,239.544z"/>
	<path style="fill:#2D2B29;" d="M376,0H136c-22.056,0-40,17.944-40,40v432c0,22.056,17.944,40,40,40h240c22.056,0,40-17.944,40-40
		V40C416,17.944,398.056,0,376,0z M400,472c0,13.233-10.766,24-24,24H136c-13.234,0-24-10.767-24-24V40c0-13.233,10.766-24,24-24
		h240c13.234,0,24,10.767,24,24V472z"/>
	<path style="fill:#2D2B29;" d="M143.491,106.809L147.544,96h24.912l4.053,10.809c1.205,3.211,4.252,5.193,7.492,5.193
		c0.933,0,1.882-0.164,2.808-0.511c4.137-1.551,6.233-6.163,4.682-10.3l-24-64c-0.03-0.08-0.068-0.153-0.101-0.231
		c-0.054-0.131-0.108-0.262-0.169-0.39c-0.057-0.121-0.119-0.238-0.182-0.354c-0.059-0.109-0.118-0.22-0.183-0.327
		c-0.073-0.122-0.15-0.24-0.229-0.357c-0.066-0.098-0.132-0.194-0.202-0.289c-0.085-0.114-0.172-0.225-0.262-0.333
		c-0.077-0.093-0.154-0.184-0.235-0.273c-0.091-0.101-0.184-0.197-0.279-0.292c-0.091-0.091-0.183-0.18-0.278-0.267
		c-0.094-0.085-0.19-0.167-0.287-0.247c-0.104-0.085-0.21-0.17-0.32-0.251c-0.1-0.073-0.201-0.144-0.303-0.212
		c-0.113-0.076-0.226-0.15-0.343-0.219c-0.112-0.068-0.227-0.13-0.342-0.192c-0.112-0.06-0.224-0.12-0.34-0.174
		c-0.132-0.063-0.268-0.119-0.403-0.175c-0.075-0.031-0.146-0.068-0.223-0.097c-0.033-0.012-0.066-0.02-0.1-0.032
		c-0.144-0.052-0.291-0.096-0.438-0.139c-0.108-0.032-0.216-0.067-0.325-0.095c-0.14-0.035-0.282-0.062-0.423-0.089
		c-0.118-0.023-0.235-0.049-0.353-0.066c-0.131-0.02-0.265-0.03-0.397-0.043c-0.128-0.013-0.256-0.028-0.384-0.034
		c-0.125-0.007-0.252-0.003-0.378-0.003c-0.135,0-0.269-0.003-0.402,0.003c-0.122,0.005-0.244,0.021-0.365,0.033
		c-0.139,0.013-0.278,0.023-0.416,0.044c-0.114,0.017-0.228,0.043-0.342,0.065c-0.145,0.028-0.29,0.055-0.433,0.091
		c-0.108,0.027-0.215,0.062-0.322,0.094c-0.147,0.043-0.295,0.087-0.439,0.14c-0.033,0.012-0.067,0.02-0.1,0.032
		c-0.078,0.029-0.149,0.066-0.225,0.098c-0.135,0.055-0.269,0.111-0.399,0.173c-0.118,0.056-0.232,0.116-0.346,0.177
		c-0.113,0.061-0.226,0.122-0.336,0.188c-0.119,0.072-0.234,0.147-0.349,0.224c-0.101,0.067-0.2,0.136-0.297,0.208
		c-0.111,0.083-0.219,0.168-0.326,0.256c-0.095,0.079-0.189,0.159-0.281,0.242c-0.097,0.088-0.191,0.179-0.284,0.272
		s-0.185,0.188-0.274,0.286c-0.083,0.091-0.162,0.185-0.24,0.279c-0.088,0.106-0.175,0.216-0.258,0.328
		c-0.071,0.096-0.139,0.194-0.205,0.293c-0.078,0.116-0.154,0.232-0.227,0.353c-0.065,0.108-0.125,0.219-0.185,0.331
		c-0.063,0.116-0.124,0.231-0.181,0.352c-0.061,0.128-0.116,0.259-0.17,0.391c-0.032,0.078-0.07,0.151-0.1,0.231l-24,64
		c-1.551,4.137,0.545,8.749,4.682,10.3c0.925,0.347,1.875,0.511,2.808,0.511C139.238,112.002,142.286,110.021,143.491,106.809z
		 M153.544,80L160,62.784L166.456,80H153.544z"/>
	<path style="fill:#2D2B29;" d="M378.809,400.509c-4.137-1.552-8.749,0.545-10.3,4.682L364.456,416h-24.912l-4.053-10.809
		c-1.551-4.136-6.16-6.234-10.3-4.682c-4.137,1.551-6.233,6.163-4.682,10.3l24,64c0.016,0.042,0.04,0.078,0.056,0.119
		c0.128,0.325,0.274,0.643,0.443,0.949c0.018,0.032,0.033,0.067,0.051,0.099c0.176,0.307,0.378,0.599,0.594,0.882
		c0.055,0.071,0.109,0.142,0.166,0.211c0.222,0.271,0.458,0.531,0.716,0.772c0.029,0.028,0.061,0.051,0.09,0.078
		c0.24,0.218,0.496,0.419,0.765,0.609c0.061,0.043,0.121,0.086,0.183,0.127c0.293,0.195,0.599,0.375,0.923,0.533
		c0.043,0.021,0.088,0.037,0.131,0.057c0.185,0.085,0.37,0.171,0.563,0.245c0.108,0.04,0.216,0.069,0.325,0.105
		c0.068,0.022,0.136,0.045,0.205,0.066c0.336,0.1,0.673,0.178,1.011,0.233c0.06,0.009,0.119,0.016,0.179,0.023
		c0.363,0.051,0.727,0.083,1.088,0.083h0.001H352c0.361,0,0.725-0.033,1.088-0.083c0.06-0.008,0.119-0.014,0.179-0.023
		c0.338-0.055,0.675-0.133,1.011-0.233c0.069-0.021,0.135-0.043,0.204-0.066c0.108-0.036,0.218-0.065,0.326-0.105
		c0.195-0.073,0.381-0.16,0.567-0.246c0.042-0.02,0.085-0.035,0.126-0.055c0.325-0.159,0.632-0.339,0.926-0.535
		c0.061-0.041,0.119-0.083,0.179-0.125c0.271-0.191,0.529-0.395,0.77-0.614c0.028-0.025,0.058-0.047,0.086-0.074
		c0.259-0.241,0.495-0.503,0.718-0.774c0.056-0.068,0.11-0.139,0.164-0.209c0.217-0.283,0.419-0.575,0.596-0.883
		c0.018-0.031,0.032-0.066,0.05-0.097c0.17-0.307,0.315-0.625,0.444-0.95c0.016-0.042,0.04-0.077,0.056-0.119l24-64
		C385.042,406.672,382.946,402.061,378.809,400.509z M358.456,432L352,449.216L345.544,432H358.456z"/>
	<path style="fill:#2D2B29;" d="M312,456H152V136c0-4.418-3.582-8-8-8s-8,3.582-8,8v328c0,4.418,3.582,8,8,8h168
		c4.418,0,8-3.582,8-8S316.418,456,312,456z"/>
	<path style="fill:#2D2B29;" d="M200,56h160v320c0,4.418,3.582,8,8,8s8-3.582,8-8V48c0-4.418-3.582-8-8-8H200c-4.418,0-8,3.582-8,8
		S195.582,56,200,56z"/>
</g>
</svg>